<svg width="18" height="14" viewBox="0 0 18 14" fill="none" xmlns="http://www.w3.org/2000/svg">
<path d="M11.523 13.787C11.523 13.787 16.024 9.282 17.778 7.527C17.924 7.381 17.997 7.189 17.997 6.997C17.997 6.805 17.924 6.614 17.778 6.467C16.025 4.713 11.523 0.209004 11.523 0.209004C11.379 0.0640044 11.189 -0.00799561 10.999 -0.00799561C10.806 -0.00799561 10.614 0.0660041 10.467 0.213004C10.174 0.505004 10.172 0.979004 10.463 1.269L15.441 6.247H0.749023C0.335023 6.247 -0.000976562 6.583 -0.000976562 6.997C-0.000976562 7.411 0.335023 7.747 0.749023 7.747H15.441L10.462 12.726C10.173 13.015 10.176 13.488 10.468 13.78C10.616 13.928 10.809 14.002 11.001 14.002C11.191 14.002 11.379 13.93 11.523 13.787Z" fill="url(#paint0_linear_10_236)"/>
<defs>
<linearGradient id="paint0_linear_10_236" x1="-1.56824e-08" y1="2" x2="15.5" y2="12.5" gradientUnits="userSpaceOnUse">
<stop stop-color="#17F88C"/>
<stop offset="1" stop-color="#17F8F8"/>
</linearGradient>
</defs>
</svg>
